<svg xmlns="http://www.w3.org/2000/svg" viewBox="0 0 602.87 112.63"><defs><style>.cls-1{fill:#fff;}.cls-2{fill:#3c3;}.cls-3{fill:#e5c438;}.cls-4{fill:#dc3714;}</style></defs><g id="Capa_2" data-name="Capa 2"><g id="Capa_1-2" data-name="Capa 1"><path class="cls-1" d="M132.79,15.77a5.36,5.36,0,0,1,4.1,1.69,5.86,5.86,0,0,1,1.58,4.2V83a6.29,6.29,0,0,1-6.41,6.42,8.93,8.93,0,0,1-2.79-.47,4.86,4.86,0,0,1-2.16-1.32L85.78,35.12l2.74-1.68V83.5a5.84,5.84,0,0,1-1.63,4.21,5.68,5.68,0,0,1-4.26,1.68,5.37,5.37,0,0,1-4.1-1.68A5.93,5.93,0,0,1,77,83.5V22.19a6.29,6.29,0,0,1,6.42-6.42,9,9,0,0,1,3,.58,4.46,4.46,0,0,1,2.31,1.74L128.8,69.2,127,70.46V21.66a5.86,5.86,0,0,1,1.58-4.2A5.49,5.49,0,0,1,132.79,15.77Z"/><path class="cls-1" d="M194.94,33.13A6,6,0,0,1,199.47,35a6.29,6.29,0,0,1,1.78,4.57V66.25q0,11.16-6.2,17.67t-17.88,6.52q-11.67,0-17.82-6.52t-6.16-17.67V39.54A6.3,6.3,0,0,1,155,35,6.48,6.48,0,0,1,164,35a6.29,6.29,0,0,1,1.78,4.57V66.25q0,6.42,2.84,9.52t8.52,3.1q5.79,0,8.62-3.1t2.84-9.52V39.54A6.3,6.3,0,0,1,190.42,35,6,6,0,0,1,194.94,33.13Z"/><path class="cls-1" d="M215.55,34.18h24.93a5.74,5.74,0,0,1,5.89,5.89,5.43,5.43,0,0,1-1.68,4,5.86,5.86,0,0,1-4.21,1.63H215.55a5.76,5.76,0,0,1-5.88-5.89,5.41,5.41,0,0,1,1.68-4A5.78,5.78,0,0,1,215.55,34.18ZM226.81,21a5.9,5.9,0,0,1,4.47,1.84A6.44,6.44,0,0,1,233,27.45v46.8a4.5,4.5,0,0,0,.58,2.41A3.24,3.24,0,0,0,235.17,78a5.46,5.46,0,0,0,2.15.42,5.66,5.66,0,0,0,2.32-.47,5.74,5.74,0,0,1,2.42-.47,3.54,3.54,0,0,1,2.68,1.36A5.56,5.56,0,0,1,246,82.66q0,2.94-3.21,4.84a13.36,13.36,0,0,1-6.89,1.89A35.55,35.55,0,0,1,231,89a13.08,13.08,0,0,1-5.05-1.79A10.93,10.93,0,0,1,222,82.87a17.31,17.31,0,0,1-1.58-8.1V27.45A6.29,6.29,0,0,1,226.81,21Z"/><path class="cls-1" d="M264.25,89.39a6,6,0,0,1-4.53-1.84A6.31,6.31,0,0,1,257.94,83V39.54A6.29,6.29,0,0,1,259.72,35a6.48,6.48,0,0,1,9,0,6.3,6.3,0,0,1,1.79,4.57v9.89l-.74-7a16.38,16.38,0,0,1,3-4.47A17.68,17.68,0,0,1,277,34.65a18.69,18.69,0,0,1,4.94-1.94,22.07,22.07,0,0,1,5.26-.64,8,8,0,0,1,5.31,1.79,5.35,5.35,0,0,1,2.16,4.21c0,2.31-.6,4-1.79,5A5.86,5.86,0,0,1,289,44.59a8.76,8.76,0,0,1-3.63-.74,9,9,0,0,0-3.73-.73,9.25,9.25,0,0,0-3.84.89,10.68,10.68,0,0,0-3.58,2.79,14.63,14.63,0,0,0-2.62,4.68,19.4,19.4,0,0,0-1,6.57V83a6.32,6.32,0,0,1-1.79,4.58A6,6,0,0,1,264.25,89.39Z"/><path class="cls-1" d="M309.05,26.29c-2.39,0-4.07-.38-5.05-1.16S302.53,23,302.53,21V19c0-2,.54-3.41,1.63-4.15a9,9,0,0,1,5-1.1q3.68,0,5.15,1.15c1,.77,1.48,2.14,1.48,4.1v2c0,2-.53,3.42-1.58,4.16S311.43,26.29,309.05,26.29ZM315.46,83a6.32,6.32,0,0,1-1.79,4.58,6.47,6.47,0,0,1-9,0A6.32,6.32,0,0,1,302.84,83V39.54A6.3,6.3,0,0,1,304.63,35a6.47,6.47,0,0,1,9,0,6.3,6.3,0,0,1,1.79,4.57Z"/><path class="cls-1" d="M328,27.87a6.51,6.51,0,0,1-4.57-1.68,5.71,5.71,0,0,1-1.84-4.42,5.55,5.55,0,0,1,1.84-4.37A6.66,6.66,0,0,1,328,15.77h46.7a6.54,6.54,0,0,1,4.57,1.69,5.68,5.68,0,0,1,1.84,4.41,5.54,5.54,0,0,1-1.84,4.37,6.63,6.63,0,0,1-4.57,1.63Zm23.25,61.52a6.63,6.63,0,0,1-4.84-1.84A6.13,6.13,0,0,1,344.49,83V22h13.67V83a6,6,0,0,1-2,4.58A7,7,0,0,1,351.22,89.39Z"/><path class="cls-1" d="M391.07,89.39a6,6,0,0,1-4.52-1.84A6.32,6.32,0,0,1,384.76,83V39.54A6.3,6.3,0,0,1,386.55,35a6.47,6.47,0,0,1,9,0,6.26,6.26,0,0,1,1.79,4.57v9.89l-.73-7a16.58,16.58,0,0,1,3-4.47,17.73,17.73,0,0,1,4.16-3.26,18.69,18.69,0,0,1,4.94-1.94,22,22,0,0,1,5.26-.64,8.06,8.06,0,0,1,5.31,1.79,5.34,5.34,0,0,1,2.15,4.21c0,2.31-.59,4-1.78,5a5.88,5.88,0,0,1-3.89,1.53,8.69,8.69,0,0,1-3.63-.74,9,9,0,0,0-3.74-.73,9.17,9.17,0,0,0-3.83.89A10.68,10.68,0,0,0,401,46.8a14.65,14.65,0,0,0-2.63,4.68,19.4,19.4,0,0,0-1,6.57V83a6.28,6.28,0,0,1-1.79,4.58A6,6,0,0,1,391.07,89.39Z"/><path class="cls-1" d="M475.21,32.07a6.15,6.15,0,0,1,4.52,1.79,6.29,6.29,0,0,1,1.78,4.63V83a6.31,6.31,0,0,1-1.78,4.58,6.48,6.48,0,0,1-9.05,0A6.32,6.32,0,0,1,468.89,83V77.82l2.32,1a5.93,5.93,0,0,1-1.47,3.31,20.24,20.24,0,0,1-4,3.84,24.61,24.61,0,0,1-5.94,3.21,20.63,20.63,0,0,1-7.42,1.31,24,24,0,0,1-13.14-3.73,26.28,26.28,0,0,1-9.31-10.31,32.21,32.21,0,0,1-3.42-15.09,32.49,32.49,0,0,1,3.42-15.2,26.61,26.61,0,0,1,9.2-10.3A23.19,23.19,0,0,1,452,32.07a24.31,24.31,0,0,1,8.31,1.37,24.77,24.77,0,0,1,6.57,3.47,19.86,19.86,0,0,1,4.32,4.26,6.83,6.83,0,0,1,1.52,3.63l-3.79,1.37V38.49a6.34,6.34,0,0,1,1.79-4.58A6.07,6.07,0,0,1,475.21,32.07ZM454,78.87a14.26,14.26,0,0,0,8.1-2.31,15.6,15.6,0,0,0,5.41-6.31,20.09,20.09,0,0,0,1.95-8.94,20.31,20.31,0,0,0-1.95-9A15.53,15.53,0,0,0,462.06,46a14.19,14.19,0,0,0-8.1-2.32A14,14,0,0,0,446,46a15.63,15.63,0,0,0-5.42,6.31,20.31,20.31,0,0,0-1.94,9,20.09,20.09,0,0,0,1.94,8.94A15.69,15.69,0,0,0,446,76.56,14.08,14.08,0,0,0,454,78.87Z"/><path class="cls-1" d="M520.21,32.07a38.77,38.77,0,0,1,10.47,1.27,16.94,16.94,0,0,1,6.94,3.52,7.12,7.12,0,0,1,2.47,5.42,6.85,6.85,0,0,1-1.26,3.94,4.17,4.17,0,0,1-3.68,1.84,6.59,6.59,0,0,1-4.73-1.68,11.49,11.49,0,0,0-2-1.37,9.8,9.8,0,0,0-3.21-1,22,22,0,0,0-3.21-.37A16.91,16.91,0,0,0,512.9,46a15.42,15.42,0,0,0-5.73,6.25,19.92,19.92,0,0,0-2,9.1,19.16,19.16,0,0,0,2.06,9,16,16,0,0,0,5.67,6.26,15.25,15.25,0,0,0,8.37,2.31,28,28,0,0,0,4.52-.31,11.19,11.19,0,0,0,3.15-1,19.18,19.18,0,0,0,2.63-1.79,5.4,5.4,0,0,1,3.47-.94,5.21,5.21,0,0,1,4.21,1.73,6.38,6.38,0,0,1,1.47,4.26q0,2.63-2.94,4.79a23.94,23.94,0,0,1-7.73,3.47,39.29,39.29,0,0,1-10.36,1.31,26.49,26.49,0,0,1-14.41-3.84,25.61,25.61,0,0,1-9.41-10.46,32.68,32.68,0,0,1-3.31-14.83,31.7,31.7,0,0,1,3.52-15.2,26.15,26.15,0,0,1,9.78-10.3A27.44,27.44,0,0,1,520.21,32.07Z"/><path class="cls-1" d="M557.23,89.39a6,6,0,0,1-4.52-1.84A6.32,6.32,0,0,1,550.92,83V18a6.3,6.3,0,0,1,1.79-4.57,6.47,6.47,0,0,1,9,0A6.3,6.3,0,0,1,563.54,18V83a6.32,6.32,0,0,1-1.79,4.58A6,6,0,0,1,557.23,89.39Zm33.44-56.26a5.47,5.47,0,0,1,4.21,2,6,6,0,0,1,1.79,3.9,6.29,6.29,0,0,1-2.53,4.73L562.49,72.88,562,58.37l24.09-23.25A6.34,6.34,0,0,1,590.67,33.13Zm1.58,56.15a6,6,0,0,1-4.63-2.1L568.17,66.57l9.57-8.84,18.93,20.62a6.71,6.71,0,0,1,2,4.73,5.48,5.48,0,0,1-2.16,4.47A6.81,6.81,0,0,1,592.25,89.28Z"/><circle class="cls-2" cx="15.01" cy="16.87" r="15.01"/><circle class="cls-3" cx="15.01" cy="56.31" r="15.01"/><circle class="cls-4" cx="15.1" cy="95.76" r="15.01"/></g></g></svg>